<?xml version="1.0" encoding="UTF-8"?>
<!DOCTYPE svg PUBLIC "-//W3C//DTD SVG 1.1//EN" "http://www.w3.org/Graphics/SVG/1.1/DTD/svg11.dtd">
<!-- Creator: CorelDRAW X8 -->
<svg class="icon-svg" xmlns="http://www.w3.org/2000/svg" xml:space="preserve"
	width="82px" height="24px" version="1.1"
	style="shape-rendering:geometricPrecision; text-rendering:geometricPrecision; image-rendering:optimizeQuality; fill-rule:evenodd; clip-rule:evenodd"
	viewBox="0 0 300 90" xmlns:xlink="http://www.w3.org/1999/xlink">
	<g id="Layer_x0020_1">
		<metadata id="CorelCorpID_0Corel-Layer" />
		<polygon class="fil0"
			points="82,75 75,27 75,27 68,75 58,75 50,15 57,15 63,65 63,65 70,15 79,15 87,65 87,65 93,15 100,15 92,75 " />
		<polygon id="1" class="fil0"
			points="106,75 106,15 129,15 129,22 113,22 113,41 127,41 127,48 113,48 113,68 129,68 129,75 " />
		<path id="2" class="fil0"
			d="M136 15l15 0c4,0 7,1 9,4 2,2 3,6 3,11 0,4 0,7 -1,10 -2,2 -4,3 -6,4l0 0c3,1 5,3 6,5 1,2 2,6 2,10 0,5 -1,9 -3,12 -2,3 -6,4 -11,4l-14 0 0 -60zm13 26c3,0 4,0 5,-2 2,-1 2,-4 2,-7 0,-3 0,-5 0,-6 -1,-2 -1,-3 -2,-3 -1,-1 -3,-1 -5,-1l-6 0 0 19 6 0zm0 27c2,0 4,0 5,-1 1,0 1,-1 2,-3 0,-1 0,-3 0,-6 0,-4 0,-6 -1,-8 -1,-1 -3,-2 -6,-2l-6 0 0 20 6 0z" />
		<g id="_2264041709536">
			<path class="fil1"
				d="M190 20l0 51c0,2 3,4 5,4l51 0c2,0 4,-2 4,-4l0 -26 -5 0 0 25 -49 0 0 -50 24 0 0 -5 -25 0c-2,0 -5,2 -5,5z" />
			<path class="fil1"
				d="M230 19c0,2 3,1 5,1 2,0 4,0 6,0l-21 22 4 3 21 -21c0,13 -2,11 5,11l0 -17c0,-2 0,-3 -2,-3l-18 0 0 4z" />
		</g>
	</g>
</svg>
